<?xml version="1.0" standalone="no"?>
<!DOCTYPE svg PUBLIC "-//W3C//DTD SVG 20010904//EN"
 "http://www.w3.org/TR/2001/REC-SVG-20010904/DTD/svg10.dtd">
<svg version="1.0" xmlns="http://www.w3.org/2000/svg"
 width="512.000000pt" height="512.000000pt" viewBox="0 0 512.000000 512.000000"
 preserveAspectRatio="xMidYMid meet">

<g transform="translate(0.000000,512.000000) scale(0.100000,-0.100000)"
fill="#000000" stroke="none">
<path d="M2350 5110 c-600 -55 -1138 -299 -1564 -710 -412 -398 -669 -897
-758 -1475 -30 -199 -30 -531 0 -730 85 -547 316 -1020 692 -1409 398 -412
897 -669 1475 -758 199 -30 531 -30 730 0 578 89 1077 346 1475 758 376 389
607 862 692 1409 30 199 30 531 0 730 -61 395 -189 728 -407 1055 -401 603
-1036 1004 -1759 1111 -151 22 -438 32 -576 19z m284 -1087 c163 -328 309
-555 641 -998 229 -305 299 -410 361 -540 120 -249 123 -545 10 -827 -150
-372 -491 -634 -908 -699 -99 -15 -346 -6 -448 16 -319 70 -620 299 -768 585
-93 179 -125 311 -126 515 0 180 18 265 89 410 66 136 134 238 363 541 303
404 492 700 653 1027 30 59 56 107 59 107 3 0 36 -62 74 -137z"/>
</g>
</svg>
